<svg style="fill-rule:evenodd;clip-rule:evenodd;stroke-linejoin:round;stroke-miterlimit:2"
  viewBox="0 0 1024 1024" xmlns="http://www.w3.org/2000/svg" xml:space="preserve"><path style="fill:#080a0f;fill-opacity:1" d="M4.57 696.48c.125-.286-.791-.371-.666-.657.219-.5 53.837-35.622 108.258-142.492 13.766-27.031 13.477-28.444 11.251-29.663-53.936-29.529-24.528-79.306-12.337-104.375 25.148-51.708 34.132-97.09 81.681-134.479 5.86-4.608 1.856-6.194 2.246-20.324.449-16.285 3.374-16.776-2.6-31.951-11.534-29.296 10.599-44.11 30.035-48.245 6.431-1.368 7.771-.009 10.581-6 4.462-9.513 6.158-10.877 3.42-11.365-2.775-.495-13.79-1.884-14.991-2.035-3.377-.426-35.022-9.238-29.604-12.945 16.007-10.952 16.884-9.789 30.436-23.661 1.161-1.188 6.064-3.743.157-5.606-20.558-6.482-46.323-28.407-39.874-28.818 21.285-1.357 56.548-14.554 56.248-17.422-.145-1.384-21.277-12.445-31.886-31.2-.138-.242-4.815-5.294 1.586-5.167 57.804 1.145 88.794-29.98 127.039-33.198 9.304-.783 13.629-3.673 36.904-1.02 6.847.78 49.648 5.658 78.708 35.001 19.094 19.279 20.553 34.05 24.343 35.632 2.003.836 42.937 13.105 64.343 49.796 1.985 3.402 18.553 28.865 6.895 61.383-2.589 7.221-5.731-20.092-53.218-17.817-40.526 1.941-49.148 19.995-44.122 20.942 30.727 5.789 54.322 25.816 38.417 60.852-4.547 10.015-4.96 10.117-4.162 13.82 2.21 10.261-1.709 12.176 5.195 17.599 19.186 15.071 41.452 54.693 73.302 91.725 4.529 5.267-7.053 3.044-7.7 2.92-1.509-.29-10.032-2.961-7.764-.315 2.051 2.393 11.801 9.296 27.285 32.807 21.515 32.668 23.646 58.365 21.679 58.713-3.196.566-13.851-11.596-12.532-5.371 9.496 44.815-10.903 69.454-12.228 64.803-.867-3.046-1.709-20.238-4.958-13.612-2.035 4.15-15.143 30.886-35.638 45.482-8.013 5.707-1.57-7.379-4.833-7.089-5.449.483-14.512 35.055-37.762 48.72-6.711 3.945 1.256 11.174-12.109 39.699-.567 1.211-7.459 15.92-10.857 12.702-.661-.627-3.532-7.501-4.39-2.807-4.908 26.841-19.687 39.83-22.572 42.365-3.832 3.367.985 21.103 4.176 37.618.398 2.054 7.056 31.038 18.816 39.74 13.969 10.335 26.285-.146 34.768 1.06 40.311 5.732 41.353 54.244 30.773 63.043-4.691 3.902-9.303-28.173-30.653-20.281-10.109 3.737 1.271 10.791-11.535 31.288-2.965 4.745-5.818 8.638-8.109 2.384-.601-1.641-5.307-14.485-12.671-17.795-4.092-1.84-14.025 1.49-28.495-8.857-13.893-9.935-14.943-15.228-31.332-13.365-20.192 2.295-21.722-14.612-25.805-11.807-9.925 6.818-11.014 16.189-13.282 8.696-7.447-24.612 15.919-41.602 36.151-33.216 7.905 3.277 9.718 6.255 10.323 2.262 1.261-8.324-13.491-70.154-16.366-71.166-1.601-.563-7.1 2.607-14.385-20.805-.973-3.127.096-5.406-2.618-4.06-.147.073-21.69 32.896-78.956 53.232-6.312 2.241 3.44-20.109-1.094-19.369-.352.058-9.609 6.907-10.858 8.197-.893.922-1.39.881-9.898 40.951-2.768 13.04-5.329 22.017-2.329 22.383 3.389.413 25.165-2.306 26.077 25.56.174 5.337-3.11 14.826-6.627 11.61-.557-.51-9.131-10.418-11.407-4.637-.825 2.096 5.902 19.706-6.225 29.702-8.15 6.719-21.263-1.724-26.991 24.256-.208.945.136 13.131-8.416 3.786-7.096-7.755-11.498-22.229-11.723-29.7-.11-3.614.58-3.957-.709-4.815-1.702-1.132-7.761 6.717-21.834 3.615-13.868-3.056-19.564 17.001-20.171 19.141-3.368 11.858-10.739-12.14-11.272-16.906-3.737-33.438 13.814-50.671 35.346-46.745 14.604 2.663 21.687-13.397 29.831-51.364 1.519-7.083 3.398-13.075-.988-9.239-6.236 5.453-37.585 18.085-36.077 13.267 1.253-4.009 7.31-13.931 8.023-15.098 3.986-6.53-2.681.605-20.491 10.556-38.17 21.326-72.049 22.186-73.317 20.627-2.398-2.948 31.375-37.517 21.019-32.218-17.69 9.052-58.901 19.852-88.839 12.906-3.214-.746.773-2.544 7.17-8.435 3.742-3.445 25.282-23.28 44.433-45.478 3.702-4.292-5.737.844-21.671 5.28-5.25 1.461-37.92 10.555-68.115.107-.545-.188-.502-.182-6.777-2.463z" transform="translate(172 76)"/>
  <path style="fill:#151925;fill-opacity:1"
    d="M208.858 101.904c35.709-12.076 34.543-14.586 56.929-29.025 4.275-2.757-.898-2.613-11.216-5.638-15.504-4.544-30.895-15.809-25.97-16.348 62.568-6.848 87.58-45.598 156.868-31.239 4.155.861 26.31 4.389 51.749 23.203 7.937 5.869 25.846 27.721 21.192 28.317-9.107 1.167-11.343-2.694-33.977 12.225-20.475 13.497-29.018 10.066-53.777-5.162-22.125-13.609-39.312-12.406-39.464-12.148-1.329 2.241 1.799 1.912 5.128 4.639 2.356 1.931 3.95 2.451 1.566 4.242-24.077 18.076-9.059 64.244 26.61 59.435 6.114-.824-10.176 12.019-5.786 15.853 23.366 20.413 50.472 11.381 81.556 90.332 2.114 5.37 1.667 6.131-3.083 9.468-20.41 14.335-27.998 25.133-39.878 55.364-1.714 4.362-2.631 11.564-7.809 11.182-3.325-.246-12.41-32.056-35.222-52.838-11.773-10.724-53.257-19.32-108.075-52.766-2.602-1.587-7.23-1.186-4.967-13.553.607-3.315 3.627-19.814 16.58-38.726.361-.528 2.209-2.148 1.544-3.115-.223-.323-40.981.373-43.455-5.34-1.065-2.457 3.036-.106 24.306-23.013 8.005-8.62 7.364-9.658 6.499-10.072-2.47-1.182-12.036-.053-34.322-11.456-4.307-2.204-3.526-3.804-3.526-3.821"
    transform="translate(172 76)"/>
  <path style="fill:#151926;fill-opacity:1"
    d="M81.473 737.29c-.259.054-5.779 1.218-2.843-1.677 2.529-2.493 47.172-51.15 54.361-60.738 12.187-16.255 32.742-24.831 75.904-76.041 9.081-10.775 11.119-11.242 8.137-18.146-.639-1.48-8.239-19.075-4.637-19.617 3.204-.482 16.951 11.556 18.349 5.49 2.222-9.643 16.758 5.116 40.589-5.438 5.811-2.574-10.236-15.035-1.894-14.241.951.091 17.688.212 33.029-8.478 5.897-3.34-.015 3.337-27.467 48.801-40.914 67.759-68.532 90.49-76.136 96.75-9.936 8.178-42.683 37.012-99.295 50.814-8.904 2.171-8.852 1.95-18.097 2.521"
    transform="translate(172 76)"/>
  <path style="fill:#151a26;fill-opacity:1"
    d="m245.416 418.789 1.106.698c.032.37.707.464.738.834.037.428-5.459.935-5.796 1.01-11.397 2.561-24.107 2.152-17.055 5.338 17.023 7.69 17.187 7.029 35.263 11.572 3.517.884-4.932 4.123-11.793 23.395-1.823 5.121-12.887 36.2-2.509 67.904 5.844 17.852 13.323 24.037 8.144 24.222-16.002.573-27.757-3.37-30.059-4.142-26.923-9.029-38.991-25.73-36.619-16.198 3.781 15.194 9.984 23.652 4.838 19.757-31.614-23.928-39.123-45.288-41.619-49.413-1.526-2.523-3.848 4.505-3.909 6.686-.281 9.992-8.98-12.6-11.158-27.009-2.4-15.872 21.336-40.552 38.72-49.543 46.627-24.117 64.698-16.582 71.708-15.111"
    transform="translate(172 76)"/>
  <path style="fill:#28115f;fill-opacity:1"
    d="M137.651 530.568c1.76-2.729 2.375-.632 5.732 3.034 6.532 7.134 6.986 6.567 9.832 9.33 4.095 3.975 2.02-2.021.799-7.48-2.979-13.325 2.924 12.282 38.6 31.836 4.868 2.668 7.273 1.65 8.971 5.169 5.017 10.394 5.123 10.245 5.444 11.187 1.216 3.564-60.584 64.279-76.835 76.47-49.512 37.144-94.485 30.408-97.675 30.25-10.011-.494 39.161-20.735 105.132-159.796"
    transform="translate(172 76)"/>
  <path style="fill:#151926;fill-opacity:1"
    d="M533.151 529.706c-.555.036-.682-.826-1.437.094-.13.159-.144.402-.297.538-9.26 8.27-6.9 12.915-28.024 24.989-6.451 3.687-1.592-2.649.162-9.811 8.12-33.16-15.992-56.769-17.494-58.639-3.54-4.407-.335-15.617-.088-16.163 1.287-2.838 20.653-18.544 24.431-24.265 3.011-4.559-7.069 2.216-7.865-.96-2.814-11.226-8.719-18.815-11.608-38.031-2.147-14.277 32.649 4.495 34.382 5.393 60.011 31.108 49.675 83.34 46.009 85.419-1.755.996-4.62-6.444-5.148-7.639-4.964-11.248-.974 6.003-17.943 30.675-2.824 4.106-15.258 18.006-15.502 14.181-.188-2.937.567-2.828.422-5.781"
    transform="translate(172 76)"/>
  <path style="fill:#151925;fill-opacity:1"
    d="M474.029 247.154c.043.081 1.732.371 1.236 2.346-1.624 6.469-5.819 6.278-2.069 24.077.633 3.006-.292 2.839-2.586 4.116-21.052 11.719-34.96 30.937-34.913 31.808.321 5.985 33.993-18.947 38.732-20.259 6.276-1.737 18.371 12.587 32.743 32.499 26.035 36.072 34.325 42.204 26.268 39.977-15.744-4.352-16.176-5.543-16.686-4.263-.405 1.015 1.122.333 32.317 37.393 19.508 23.176 30.292 47.378 22.144 36.954-2.679-3.428-7.658-9.797-43.454-32.707-73.772-47.216-72.503-49.172-79.248-52.705-.006-1.685-.013-3.559-15.354-14.421-17.631-12.484-18.811-11.58-18.993-13.432-.167-1.691 9.913-23.151 13.799-30.794 8.571-16.858 19.113-12.128 46.064-40.589"
    transform="translate(172 76)"/>
  <path style="fill:#96b1fb;fill-opacity:1"
    d="M386.358 346.19c.863.411.545 1.107 2.142 1.019 4.206-.232 4.312-.865 8.142 1.017l2.145-1.135c.538.499 4.571 4.245 5.268 7.508 2.417 11.317-7.211 11.977-7.041 17.901.318 11.001-.226 25.395 2.393 26.24 7.902 2.55 7.787 2.661 15.067 6.808 2.727 1.554 2.499-.379 7.344-4.683 5.626-4.998 5.896-4.543 11.4-9.578 1.577.783 2.065 1.672 2.823.051.361-.772-.792-1.331-.741-2.838.019-.56.215-6.332-.01-7-.165-.492-.905-.639-1.07-1.131.919-1.473 2.142-4.45 6.189-6.101 19.87-8.104 26.701 28.858 1.125 24.084-1.801-.337-2.11-.195-17.855 14.344-.931 1.293-.983 1.237-1.167 2.8 3.493 9.179 4.093 9.157 3.58 18.983-.265 5.077-2.384 5.946 1.051 8.5 10.437 7.759 12.618 9.749 14.106 9.082 1.172-.527 10.398-4.669 15.822 2.789 12.967 17.829-18.907 31.88-21.723 9.67-.618-4.878-1.561-4.506-5.605-7.353-4.479-3.153-8.417-6.83-10.002-5.383-7.324 6.689-6.837 7.485-16.339 11.319-2.573.846-2.654.602-4.554 2.447-.028 1.92-.217 14.938.225 24.002.029.612-.443 1.077 3.485 3.882-1.441 3.325.631 2.922 1.268 4.066.073.131-.832.165.116 1.873 1.053 1.897.551 1.999.558 8.108-.462.577-.552.428-.858 1.073-1.263 2.656-2.552 1.587-3.921 4.238-.331.641.333 1.524.002 2.166-10.131 4.715-23.15-5.958-16.353-18.548l1.858.909c2.807-1.726 3.516-2.055 2.13-5.002 3.104-2.33 2.303-2.903 2.257-6.819-.217-18.449.529-20.873-3.181-21.7-6.188-1.38-14.071-6.903-14.081-6.908-1.894-.817-19.795 13.295-23.701 15.237-.987-.829-1.094-1.134.148-2.339 9.145-8.872 5.143-13.435 9.672-17.325 1.151-.81 3.41-2.269 3.709-2.462 3.169-2.047 2.196-2.81.976-6.383.871-1.952.929-1.858 1.062-4.005-.937-1.957-1.031-1.927-1.012-2.113.553-5.549-.23-5.523-.158-5.998.085-.551 1.226-.488 1.31-1.039.139-1.641-.144-1.515-1.055-2.983-.182-4.155.668-3.927.782-4.132.872-1.56.109-1.564-1.025-4.031.872-4.158-.365-3.947-2.76-6.606-3.416-3.178-3.326-3.187-6.744-6.275-8.959-8.092-8.948-10.126-13.151-8.13-12.01 5.704-28.197-15.6-7.976-25.052 1.932-.24 5.404-1.409 10.399 1.747l-.132 2.244c1.866 2.109 3.784 1.318 4.176 9.224.083 1.658.432 1.482.982 3.031.178.503-.185 1.107.017 1.601.151.37.718-.288 3.86 3.173 2.096 2.309 2.499 1.676 3.983 1.001 1.026.973 6.27 5.948 13.024 11.948 1.261 1.12 1.505.282 6.461-3.194 2.078 1.095 2.189 1.102 4.284.103.094-.039.017.003 2.365-1.632l-1.438-1.221c6.535-2.605 6.628-2.378 7.053-2.812 1.123-1.146.167-23.746-.149-26.937-.242-2.432-1.961-1.15-5.933-5.951.329-1.083.772-.897.632-2.079-.102-.854.056-.765.029-.825-1.718-3.827-.745-3.937-.923-8.175-.049-1.166-.377-.999-.786-2.084 2.419-3.682 2.23-3.881 6.024-6.226"
    transform="translate(172 76)"/>
  <path style="fill:#31323a;fill-opacity:1"
    d="m288.595 445.498.904.75 1.957-.505c26.204-.725 32.424-4.535 44.879.215 10.753 4.101 15.1 14.953-14.323 31.101-6.832 3.75 4.283.613 13.515 1.105 6.086.324 9.969 23.28-22.124 31.981-8.549 2.319 1.797 2.735 4.966 4.536 7.016 3.987-40.124 25.653-57.036 19.251-4.397-1.665-18.924-43.342 5.5-83.205 10.196-16.643 33.157-25.015 44.654-18.211 5.068 3-20.656 9.881-22.892 12.982"
    transform="translate(172 76)"/>
  <path style="fill:#37373f;fill-opacity:1"
    d="M540.115 165.509c-.662 12.133-10.039-23.205-89.606-30.101-22.449-1.945-62.623 2.29-68.041 2.862-.306.032-6.203.654-3.581-1.387 21.276-16.556 20.308-17.579 39.903-36.065 26.139-24.66 36.311-20.013 58.548-11.863 35.95 13.177 51.791 40.354 54.65 45.258 7.784 13.354 7.876 26.526 8.127 31.296"
    transform="translate(172 76)"/>
  <path style="fill:#6435de;fill-opacity:1"
    d="M122.893 427.995c36.927-25.767 63.722-28.885 98.712-39.084 77.801-22.675 143.266-68.132 143.629-68.617 2.012-2.682-16.794-31.975-20.801-36.737-6.367-7.567-44.57-18.763-100.151-46.605-36.928-18.498-42.361-19.355-41.34-27.404 1.486-11.715 38.484-18.548 22.785-11.654-22.862 10.04 4.096 18.275 17.756 25.636 34.381 18.526 92.262 40.521 104.751 48.34 7.99 5.002 29.518 44.647 30.549 47.554.715 2.018-6.098 5.45-10.964 8.574-110.391 70.871-148.834 71.885-185.336 83.454-62.461 19.796-79.165 52.847-71.301 35.922 7.616-16.393 8.204-16.621 11.711-19.379"
    transform="translate(172 76)"/>
  <path style="fill:#32333a;fill-opacity:1"
    d="M417.772 748.44c-.97-4.02-9.872-40.903-13.126-49.993-.068-.188-1.486-4.152 1.753-1.779 10.784 7.902 16.192.857 17.293.216 5.122-2.985 3.943 70.488 35.743 83.764 14.107 5.889 17.011 3.973 15.912 6.785-.96 2.457-.89 2.402-.83 5.068.045 1.99-.809 2.552-2.175 1.185-7.473-7.472-27.911-6.205-28.186-2.234-.157 2.268 1.137 1.13 7.316 1.469 15.334.84 25.291 12.689 28.605 21.721.572 1.559 4.493 12.244 1.086 20.73-2.075 5.166-1.68-2.996-9.987-10.495-2.698-2.437-16.171-9.827-16.732-9.8-2.208.108.617 4.675-3.929 4.327-13.061-1-20.906-23.707-46.069-20.392-11.05 1.456-17.639-3.978-10.599-13.246 5.29-6.963 7.302-.691 16.69.247 13.821 1.38 9.631-27.096 7.235-37.573"
    transform="translate(172 76)"/>
  <path style="fill:#37383f;fill-opacity:1"
    d="M510.54 160.123c-2.87-.26-2.852-.255-3.099-.281-48.882-5.177-66.66 24.48-113.873-.469-1.769-.935-17.068-9.02-21.816-12.229-.618-.418-3.166-4.471 7.771-5.155 54.776-3.424 84.639-3.515 117.035 8.367 9.682 3.552 19.867 10.121 19.865 10.166-.047 1.699-3.37.235-5.883-.399"
    transform="translate(172 76)"/>
  <path style="fill:#33333b;fill-opacity:1"
    d="M254.863 713.524c1.08-3.094 2.106-1.428 3.856-.407 9.9 5.775 22.724-13.587 20.387-6.682-6.063 17.917-15.461 67.58-15.854 70.027-2.93 18.267 2.709 17.554 5.326 28.036.298 1.193-.516.628-4.124.496-16.959-.624-18.325 1.211-20.116 2.19-10.938 5.978-13.647 16.001-14.183 17.137-.748 1.587-7.62 8.059-16.65 9.264-3.732.498-1.247-1.735.364-4.915 5.822-11.489-.374-16.713-1.899-18.506-1.3-1.53 2.273-1.289 2.497-1.274 32.775 2.209 37.623-72.497 40.396-95.366"
    transform="translate(172 76)"/>
  <path style="fill:#10131f;fill-opacity:1"
    d="M387.571 407.819c32.343-6.196 41.599 37.46 12.994 46.874-9.367 3.083-19.322-2.738-20.778-3.59-3.18-2.765-3.113-2.696-5.914-5.865-15.802-27.589 13.178-37.207 13.698-37.419"
    transform="translate(172 76)"/>
  <path style="fill:#6737e0;fill-opacity:1"
    d="M474.029 247.154c-26.951 28.461-37.493 23.731-46.064 40.589-3.886 7.643-13.966 29.103-13.799 30.794.182 1.852 1.362.948 18.993 13.432 15.341 10.862 15.348 12.736 15.354 14.421-28.549-19.545-46.259-23.871-45.199-27.936 2.042-7.83 16.515-39.18 20.482-43.704 14.324-16.334 59.639-37.579 44.603-58.175-6.459-8.847-14.857-10.446-11.819-11.816.666-.301 16.59 6.434 21.611 12.993 9.207 12.031 1.643 21.942-4.162 29.402"
    transform="translate(172 76)"/>
  <path style="fill:#fdfdfd;fill-opacity:1"
    d="M364.028 92.495c-.096.83-.814 7.062-6.507 8.161-3.321.64-8.852-9.277-9.698-2.109-.977 8.272 6.771 26.808 25.736 21.386 5.188-1.483-9.065 13.171-24.797 4.078-26.838-15.513-9.178-60.066 12.495-38.277 2.684 2.699 2.265 2.972 2.771 6.761"
    transform="translate(172 76)"/>
  <path style="fill:#8dd1fd;fill-opacity:1"
    d="M400.721 417.065c16.724 10.222 7.689 36.07-13.2 29.39-12.635-6.648-13.054-20.591-3.271-28.311 6.56-3.954 9.969-4.222 16.471-1.079"
    transform="translate(172 76)"/>
  <path style="fill:#33343b;fill-opacity:1"
    d="M238.852 836.508c.409-4.676-.029-4.696 1.587-9.03 9.75-26.159 31.572 4.438 15.777 14.563-15.085 9.669-10.263 19.458-13.643 17.318-3.47-2.197-3.698-20.999-3.721-22.851"
    transform="translate(172 76)"/>
  <path style="fill:#32333b;fill-opacity:1"
    d="M183.791 841.516c.326-6.548.255-6.513.352-7.071 5.692-32.832 22.523-23.67 25.481-17.007 5.109 11.511-17.98 16.879-23.646 25.465-2.942 4.458-2.175-.938-2.187-1.387"
    transform="translate(172 76)"/>
  <path style="fill:#131725;fill-opacity:1"
    d="M483.079 553.504c-.526-27.956.477-44.165.715-47.998 0-.011-1.156-8.807 2.105-3.339 5.803 9.728 11.05 18.4 8.198 36.27-.911 5.707-11.451 24.02-11.018 15.067"
    transform="translate(172 76)"/>
  <path style="fill:#35353d;fill-opacity:1"
    d="M514.334 792.659c1.225 1.606 11.505 15.077 10.539 22.939-.477 3.879-2.56-2.134-10.679-7.632-7.256-4.914-16.33-1.99-17.28-12.487-.419-4.627 4.204-8.633 5.524-9.122 3.466-1.285 11.096 5.582 11.896 6.302"
    transform="translate(172 76)"/>
  <path style="fill:#37373f;fill-opacity:1"
    d="M495.23 785.215c-11.282 12.413 1.801 20.543-2.549 21.731-3.162.864-5.536 2.771-9.936-7.545-6.052-14.191 17.634-21.345 13.585-15.057-.061.094 0 0-1.1.871"
    transform="translate(172 76)"/>
  <path style="fill-opacity:1"
    d="M432.525 117.805c-18.788-.027-5.127-13.927 4.908-11.959 6.194 1.215 6.111 5.22 6.058 5.653-.561 4.533-9.968 6.136-10.966 6.306"
    transform="translate(172 76)"/>
  <path style="fill:#37373f;fill-opacity:1"
    d="M268.408 839.162c-4.556.022.076-3.968-.93-10.659-2.093-13.928-10.787-12.772-7.319-15.422 1.43-1.092 18.633 1.683 13.849 21.283-.683 2.795-5.054 4.575-5.6 4.798"
    transform="translate(172 76)"/>
  <path style="fill:#121621;fill-opacity:1"
    d="M276.731 793.714c1.673-.85 1.646-.897 1.807-.918 12.943-1.739 15.746 16.223 8.839 12.978-9.059-4.255-15.188-3.106-10.646-12.06"
    transform="translate(172 76)"/>
  <path style="fill:#171b29;fill-opacity:1"
    d="M269.49 428.196c-3.574-.09-1.458-1.817-.458-3.158.112-.149 8.268-13.319 9.572-11.649.609.78 4.412 9.344 4.777 10.166 1.174 2.643-1.433 2.967-1.845 3.074-7.632 1.988-11.493 1.532-12.046 1.567"
    transform="translate(172 76)"/>
  <path style="fill:#0b0e19;fill-opacity:1"
    d="M387.716 783.731c-6.286 5.649-12.739 4.702-9.96 1.974 1.719-1.688 5.468-7.53 10.028-4.703 1.862 1.154.091 2.512-.068 2.729"
    transform="translate(172 76)"/>
  <path style="fill:#bd94fc;fill-opacity:1"
    d="M342.829 375.001c.78.588 5.655 4.262 6.221 10.514.56 6.188 2.048 5.536 6.665 9.76-1.484.675-1.887 1.308-3.983-1.001-3.142-3.461-3.709-2.803-3.86-3.173-.202-.494.161-1.098-.017-1.601-.55-1.549-.899-1.373-.982-3.031-.392-7.906-2.31-7.115-4.176-9.224z"
    transform="translate(172 76)"/>
  <path style="fill:#bb97fc;fill-opacity:1"
    d="M363.061 419.317c1.134 2.467 1.897 2.471 1.025 4.031-.114.205-.964-.023-.782 4.132l1.055 2.983c-.084.551-1.225.488-1.31 1.039-.072.475.711.449.158 5.998-.019.186.075.156 1.012 2.113-.133 2.147-.191 2.053-1.062 4.005-3.485-12.717-2.993-12.924-.096-24.301"
    transform="translate(172 76)"/>
  <path style="fill:#d0a7fd;fill-opacity:1"
    d="M402.558 493.434c6.909 6.842 3.443 14.276 3.156 15.153l-1.214-1.106c-.007-6.109.495-6.211-.558-8.108-.948-1.708-.043-1.742-.116-1.873-.637-1.144-2.709-.741-1.268-4.066"
    transform="translate(172 76)"/>
  <path style="fill:#aef4fd;fill-opacity:1"
    d="M434.22 380.369c.165.492.905.639 1.07 1.131.225.668.029 6.44.01 7-.051 1.507 1.102 2.066.741 2.838-.758 1.621-1.246.732-2.823-.051.901-5.49-.726-5.626 1.002-10.918"
    transform="translate(172 76)"/>
  <path style="fill:#b2f7fd;fill-opacity:1"
    d="M386.358 346.19c4.843-1.996 8.774-1.436 12.429.901l-2.145 1.135c-3.83-1.882-3.936-1.249-8.142-1.017-1.597.088-1.279-.608-2.142-1.019"
    transform="translate(172 76)"/>
  <path style="fill:#c0fafd;fill-opacity:1"
    d="M380.334 352.416c.409 1.085.737.918.786 2.084.178 4.238-.795 4.348.923 8.175.027.06-.131-.029-.029.825.14 1.182-.303.996-.632 2.079-3.831-7.154-2.077-10.365-1.048-13.163"
    transform="translate(172 76)"/>
  <path style="fill:#9777fa;fill-opacity:.99"
    d="M359.154 408.842c-3.623-3.608-3.758-3.48-3.911-3.894-.269-.729 2.783-1.672 3.272-1.483 2.468.952 2.22 3.849 2.006 4.173-.334.507-1.033.697-1.367 1.204"
    transform="translate(172 76)"/>
  <path style="fill:#b69cf1;fill-opacity:1"
    d="M373.873 445.238c2.801 3.169 2.734 3.1 5.914 5.865-1.34.702-1.515 1.666-3.151.221-2.921-2.579-4.586-2.591-2.763-6.086"
    transform="translate(172 76)"/>
  <path style="fill:#c09afa;fill-opacity:1"
    d="M405.714 508.587c-2.561 4.941-3.118 4.493-5.991 6.371.331-.642-.333-1.525-.002-2.166 1.369-2.651 2.658-1.582 3.921-4.238.306-.645.396-.496.858-1.073z"
    transform="translate(172 76)"/>
  <path style="fill:#8bcafe;fill-opacity:1"
    d="M383.589 438.446c-.085-.147-2.878-4.993.054-2.128.952.93 1.402 1.218 1.538 1.305 1.053.672 5.989 3.475 1.22 3.918-1.325-1.672-1.476-1.458-2.812-3.095"
    transform="translate(172 76)"/>
  <path style="fill:#b6c7f3;fill-opacity:1"
    d="m380.411 401.279 1.438 1.221c-2.348 1.635-2.271 1.593-2.365 1.632-2.095.999-2.206.992-4.284-.103 2.546-1.492 2.467-1.478 5.211-2.75"
    transform="translate(172 76)"/>
  <path style="fill:#c399f7;fill-opacity:1"
    d="M387.358 492.317c1.386 2.947.677 3.276-2.13 5.002l-1.858-.909c1.82-2.264 1.848-2.14 3.988-4.093"
    transform="translate(172 76)"/>
  <path style="fill:#88c7fe;fill-opacity:1"
    d="M383.589 438.446c1.336 1.637 1.487 1.423 2.812 3.095-.321.053-.405 2.035-2.325.385-.085-.072-.41-.352-.994-.972-1.675-1.778.498-2.467.507-2.508"
    transform="translate(172 76)"/>
  <path style="fill:#89cffe;fill-opacity:1"
    d="M404.621 427.38c1.025 1.948 1.668 2.504-.35 3.469-.073.035-1.196-1.003-.752-2.305.172-.506.93-.658 1.102-1.164"
    transform="translate(172 76)"/>
  <path style="fill:#9d7afc;fill-opacity:1"
    d="M390.562 496.524c.507.229.454-.335.926-.121.113.052.816.369 1.148 1.06.024.05-2.565 4.162-2.074-.939"
    transform="translate(172 76)"/>
  <path style="fill:#8f78f6;fill-opacity:1" d="M363.304 427.48c.911 1.468 1.194 1.342 1.055 2.983z"
    transform="translate(172 76)"/>
  <path style="fill:#89cffe;fill-opacity:1"
    d="M403.197 434.568c.923 1.354 2.858 1.874 1.224 1.795-.692-.033-.937-.392-.986-.464-.431-.632.167-.737-.238-1.331"
    transform="translate(172 76)"/>
  <path style="fill:#91a7fe;fill-opacity:1"
    d="M380.042 406.519c.528 1.913.738 2.053.567 2.057-.17.005-.04-.145-.567-2.057"
    transform="translate(172 76)"/>
  <path style="fill:#0c0e17"
    d="M202.014 217.508c-.003-.144-.146-.291-.021-.981.159-.874.006.281.021.981"
    transform="translate(172 76)"/></svg>
